<svg width="174" height="52" viewBox="0 0 174 52" fill="none" xmlns="http://www.w3.org/2000/svg">
<rect x="1.30493" y="0.701411" width="171.808" height="50.1458" rx="4.8625" fill="black"/>
<rect x="1.30493" y="0.701411" width="171.808" height="50.1458" rx="4.8625" stroke="#A6A6A6" stroke-width="1.08056"/>
<path d="M137.712 38.5806H140.101V22.5703H137.712V38.5806ZM159.236 28.3379L156.496 35.2789H156.414L153.571 28.3379H150.997L155.262 38.0389L152.83 43.4356H155.322L161.893 28.3379H159.236ZM145.683 36.7622C144.901 36.7622 143.809 36.3704 143.809 35.4025C143.809 34.1668 145.169 33.6931 146.342 33.6931C147.392 33.6931 147.888 33.9193 148.526 34.2284C148.34 35.7117 147.063 36.7622 145.683 36.7622ZM145.972 27.9876C144.242 27.9876 142.45 28.75 141.709 30.4389L143.829 31.3244C144.283 30.4389 145.127 30.1508 146.013 30.1508C147.249 30.1508 148.505 30.8917 148.526 32.2103V32.3749C148.093 32.1277 147.166 31.7571 146.033 31.7571C143.746 31.7571 141.419 33.0132 141.419 35.3614C141.419 37.5036 143.294 38.8838 145.394 38.8838C147 38.8838 147.888 38.1628 148.442 37.318H148.526V38.5546H150.833V32.4159C150.833 29.5735 148.71 27.9876 145.972 27.9876ZM131.203 30.2868H127.805V24.799H131.203C132.99 24.799 134.004 26.2778 134.004 27.5429C134.004 28.7836 132.99 30.2868 131.203 30.2868ZM131.142 22.5703H125.416V38.5806H127.805V32.515H131.142C133.79 32.515 136.394 30.598 136.394 27.5429C136.394 24.4884 133.79 22.5703 131.142 22.5703ZM99.9177 36.7651C98.2668 36.7651 96.8851 35.3824 96.8851 33.485C96.8851 31.5655 98.2668 30.1632 99.9177 30.1632C101.548 30.1632 102.827 31.5655 102.827 33.485C102.827 35.3824 101.548 36.7651 99.9177 36.7651ZM102.662 29.2344H102.579C102.043 28.5949 101.011 28.0172 99.7116 28.0172C96.9877 28.0172 94.4914 30.4109 94.4914 33.485C94.4914 36.5381 96.9877 38.9108 99.7116 38.9108C101.011 38.9108 102.043 38.3329 102.579 37.6731H102.662V38.4565C102.662 40.5411 101.548 41.6547 99.7526 41.6547C98.2883 41.6547 97.3804 40.6026 97.0087 39.7157L94.9252 40.5821C95.523 42.0259 97.1112 43.8008 99.7526 43.8008C102.559 43.8008 104.932 42.1499 104.932 38.1263V28.3474H102.662V29.2344ZM106.583 38.5806H108.975V22.5703H106.583V38.5806ZM112.503 33.2989C112.442 31.1943 114.134 30.1217 115.351 30.1217C116.3 30.1217 117.104 30.5965 117.373 31.2769L112.503 33.2989ZM119.931 31.4829C119.477 30.2663 118.095 28.0172 115.268 28.0172C112.462 28.0172 110.13 30.2248 110.13 33.464C110.13 36.5176 112.442 38.9108 115.536 38.9108C118.032 38.9108 119.477 37.3845 120.076 36.497L118.219 35.2588C117.599 36.1668 116.754 36.7651 115.536 36.7651C114.319 36.7651 113.452 36.2079 112.896 35.1144L120.178 32.1023L119.931 31.4829ZM61.9067 29.6885V31.9992H67.436C67.2709 33.2989 66.8376 34.2479 66.1773 34.9082C65.3724 35.7126 64.1138 36.6001 61.9067 36.6001C58.5024 36.6001 55.841 33.8561 55.841 30.4519C55.841 27.0476 58.5024 24.3033 61.9067 24.3033C63.7431 24.3033 65.0838 25.0256 66.0742 25.9541L67.7046 24.3238C66.3219 23.0036 64.486 21.9926 61.9067 21.9926C57.2432 21.9926 53.3232 25.789 53.3232 30.4519C53.3232 35.1144 57.2432 38.9108 61.9067 38.9108C64.4235 38.9108 66.3219 38.0854 67.8072 36.5381C69.334 35.0113 69.8088 32.8657 69.8088 31.1323C69.8088 30.5965 69.7671 30.1012 69.6847 29.6885H61.9067ZM76.095 36.7651C74.4441 36.7651 73.0204 35.4034 73.0204 33.464C73.0204 31.5039 74.4441 30.1632 76.095 30.1632C77.7453 30.1632 79.169 31.5039 79.169 33.464C79.169 35.4034 77.7453 36.7651 76.095 36.7651ZM76.095 28.0172C73.0819 28.0172 70.6271 30.3073 70.6271 33.464C70.6271 36.6001 73.0819 38.9108 76.095 38.9108C79.107 38.9108 81.5623 36.6001 81.5623 33.464C81.5623 30.3073 79.107 28.0172 76.095 28.0172ZM88.0215 36.7651C86.3718 36.7651 84.9476 35.4034 84.9476 33.464C84.9476 31.5039 86.3718 30.1632 88.0215 30.1632C89.6724 30.1632 91.0956 31.5039 91.0956 33.464C91.0956 35.4034 89.6724 36.7651 88.0215 36.7651ZM88.0215 28.0172C85.0095 28.0172 82.5548 30.3073 82.5548 33.464C82.5548 36.6001 85.0095 38.9108 88.0215 38.9108C91.0347 38.9108 93.4894 36.6001 93.4894 33.464C93.4894 30.3073 91.0347 28.0172 88.0215 28.0172Z" fill="white"/>
<path d="M57.7259 17.1103C56.5777 17.1103 55.5901 16.7063 54.7939 15.9102C53.9972 15.1136 53.5938 14.1161 53.5938 12.9562C53.5938 11.7963 53.9974 10.8006 54.7939 10.0022C55.5901 9.20594 56.5777 8.80207 57.7259 8.80207C58.3108 8.80207 58.8568 8.9031 59.3785 9.11348C59.9004 9.32388 60.3274 9.61596 60.6636 9.99819L60.7429 10.0885L59.8472 10.9839L59.7577 10.8739C59.5347 10.5999 59.2511 10.387 58.8917 10.2323C58.5337 10.078 58.1415 10.0067 57.7259 10.0067C56.9172 10.0067 56.2462 10.2813 55.6858 10.8396C55.6857 10.8397 55.686 10.8395 55.6858 10.8396C55.1382 11.4092 54.8624 12.1029 54.8624 12.9562C54.8624 13.8102 55.138 14.5038 55.6863 15.0736C56.2466 15.6316 56.9176 15.9077 57.7259 15.9077C58.4662 15.9077 59.0784 15.7011 59.5598 15.2919C60.0079 14.9111 60.2771 14.3966 60.3722 13.7406H57.5978V12.56H61.5713L61.5884 12.6681C61.6209 12.8756 61.6439 13.0759 61.6439 13.2684C61.6439 14.37 61.308 15.2692 60.6491 15.9307C59.9053 16.7192 58.9271 17.1103 57.7259 17.1103ZM92.2291 17.1103C91.0792 17.1103 90.1032 16.7061 89.3171 15.9102C88.53 15.1229 88.139 14.1247 88.139 12.9562C88.139 11.7877 88.5295 10.79 89.3166 10.0027C89.3165 10.0028 89.3167 10.0026 89.3166 10.0027C90.1026 9.20662 91.0792 8.80205 92.2291 8.80205C93.3768 8.80205 94.3532 9.20621 95.1391 10.0142C95.9265 10.8014 96.3172 11.7972 96.3172 12.9562C96.3172 14.1246 95.9267 15.1224 95.1396 15.9097C94.3531 16.7062 93.3674 17.1103 92.2291 17.1103ZM62.781 16.9383V8.97416H62.909H67.5374V10.1788H64.0276V12.3659H67.1932V13.5465H64.0276V15.7356H67.5374V16.9383H62.781ZM70.4484 16.9383V10.1788H68.2953V8.97416H73.8482V10.1788H73.7201H71.6951V16.9383H70.4484ZM77.397 16.9383V8.97416H78.6436V9.10223V16.9383H77.397ZM81.7817 16.9383V10.1788H79.6286V8.97416H85.1815V10.1788H85.0534H83.0284V16.9383H81.7817ZM97.4238 16.9383V8.97416H98.8295L102.407 14.7016L102.376 13.6143V8.97416H103.623V16.9383H102.389L98.6397 10.9214L98.6704 12.008V12.0097V16.9383H97.4238ZM92.2291 15.9077C93.0378 15.9077 93.698 15.6319 94.2361 15.0745L94.2369 15.0735L94.2377 15.0728C94.7835 14.5268 95.0506 13.824 95.0506 12.9562C95.0506 12.0905 94.7834 11.3853 94.2377 10.8396L94.2369 10.8388L94.2361 10.838C93.6981 10.2808 93.038 10.0066 92.2291 10.0066C91.4189 10.0066 90.7588 10.2803 90.2106 10.8375C89.6749 11.3965 89.4076 12.0907 89.4076 12.9561C89.4076 13.8237 89.6743 14.5152 90.2101 15.0742C90.7584 15.6316 91.4191 15.9077 92.2291 15.9077Z" fill="white"/>
<path d="M27.2878 25.0348L13.6533 39.5063C13.6538 39.5093 13.6549 39.5118 13.6554 39.5148C14.0735 41.0861 15.5087 42.2432 17.2121 42.2432C17.8931 42.2432 18.5324 42.0591 19.0806 41.7359L19.1242 41.7104L34.4716 32.8544L27.2878 25.0348Z" fill="#EA4335"/>
<path d="M41.0833 22.5703L41.0702 22.5613L34.4443 18.7202L26.9795 25.3627L34.4703 32.8525L41.0612 29.0496C42.2168 28.4258 43.0012 27.2077 43.0012 25.8029C43.0012 24.4083 42.2273 23.1961 41.0833 22.5703Z" fill="#FBBC04"/>
<path d="M13.6563 12.0407C13.5743 12.3429 13.5312 12.6595 13.5312 12.9882V38.5599C13.5312 38.888 13.5738 39.2057 13.6568 39.5068L27.7606 25.4056L13.6563 12.0407Z" fill="#4285F4"/>
<path d="M27.3889 25.7734L34.4461 18.7183L19.1161 9.83026C18.5589 9.49652 17.9086 9.30392 17.2127 9.30392C15.5093 9.30392 14.0721 10.463 13.6538 12.0363C13.6533 12.0379 13.6533 12.0389 13.6533 12.0403L27.3889 25.7734Z" fill="#34A853"/>
</svg>
