<svg width="158" height="53" viewBox="0 0 158 53" fill="none" xmlns="http://www.w3.org/2000/svg">
<rect x="1.48266" y="0.701411" width="155.6" height="51.1463" rx="7.02361" fill="#0C0D10"/>
<rect x="1.48266" y="0.701411" width="155.6" height="51.1463" rx="7.02361" stroke="#A6A6A6" stroke-width="1.08056"/>
<path d="M107.387 25.2313V28.2226H105.512V30.1843H107.387V36.8497C107.387 39.1257 108.417 40.0361 111.007 40.0361C111.462 40.0361 111.896 39.9819 112.275 39.9169V37.9769C111.95 38.0094 111.744 38.0311 111.387 38.0311C110.227 38.0311 109.718 37.4892 109.718 36.2536V30.1843H112.275V28.2226H109.718V25.2313H107.387Z" fill="white"/>
<path d="M118.874 40.1987C122.321 40.1987 124.434 37.8902 124.434 34.0643C124.434 30.2601 122.31 27.9408 118.874 27.9408C115.427 27.9408 113.303 30.2601 113.303 34.0643C113.303 37.8902 115.417 40.1987 118.874 40.1987ZM118.874 38.1286C116.847 38.1286 115.709 36.6438 115.709 34.0643C115.709 31.5065 116.847 30.0109 118.874 30.0109C120.89 30.0109 122.039 31.5065 122.039 34.0643C122.039 36.6329 120.89 38.1286 118.874 38.1286Z" fill="white"/>
<path d="M126.242 39.9711H128.572V33.0022C128.572 31.344 129.819 30.2276 131.585 30.2276C131.997 30.2276 132.691 30.3035 132.886 30.3685V28.0709C132.637 28.0058 132.192 27.9733 131.845 27.9733C130.306 27.9733 128.995 28.8187 128.659 29.9784H128.486V28.1684H126.242V39.9711Z" fill="white"/>
<path d="M138.672 29.9242C140.395 29.9242 141.522 31.1272 141.576 32.9805H135.615C135.745 31.138 136.948 29.9242 138.672 29.9242ZM141.565 36.7847C141.132 37.7059 140.167 38.2153 138.758 38.2153C136.894 38.2153 135.691 36.9039 135.615 34.8338V34.7038H143.95V33.8909C143.95 30.1843 141.967 27.9408 138.683 27.9408C135.355 27.9408 133.242 30.336 133.242 34.1077C133.242 37.8793 135.312 40.1987 138.693 40.1987C141.392 40.1987 143.278 38.8981 143.809 36.7847H141.565Z" fill="white"/>
<path d="M92.1063 35.6125C92.2861 38.5107 94.7012 40.3642 98.2959 40.3642C102.138 40.3642 104.542 38.4209 104.542 35.3205C104.542 32.8828 103.171 31.5348 99.8461 30.7597L98.06 30.3216C95.9481 29.8273 95.0944 29.1646 95.0944 28.0075C95.0944 26.5472 96.4199 25.5924 98.4083 25.5924C100.295 25.5924 101.599 26.5247 101.834 28.0188H104.283C104.137 25.2891 101.733 23.3682 98.442 23.3682C94.9034 23.3682 92.5444 25.2891 92.5444 28.176C92.5444 30.5575 93.8812 31.9729 96.8131 32.6582L98.9025 33.1637C101.048 33.6692 101.992 34.4106 101.992 35.6462C101.992 37.0841 100.509 38.1288 98.4869 38.1288C96.3188 38.1288 94.8136 37.1515 94.6001 35.6125H92.1063Z" fill="white"/>
<path d="M67.968 27.9733C66.3639 27.9733 64.9766 28.7753 64.2613 30.1193H64.0879V28.1684H61.8444V43.8945H64.1746V38.1828H64.3589C64.9766 39.4292 66.3097 40.1662 67.9896 40.1662C70.9701 40.1662 72.8668 37.8143 72.8668 34.0643C72.8668 30.3143 70.9701 27.9733 67.968 27.9733ZM67.3068 38.0744C65.356 38.0744 64.1313 36.5354 64.1313 34.0752C64.1313 31.6041 65.356 30.0651 67.3177 30.0651C69.2902 30.0651 70.4716 31.5716 70.4716 34.0643C70.4716 36.5679 69.2902 38.0744 67.3068 38.0744Z" fill="white"/>
<path d="M81.0205 27.9733C79.4164 27.9733 78.0292 28.7753 77.3139 30.1193H77.1404V28.1684H74.897V43.8945H77.2271V38.1828H77.4114C78.0292 39.4292 79.3623 40.1662 81.0422 40.1662C84.0226 40.1662 85.9193 37.8143 85.9193 34.0643C85.9193 30.3143 84.0226 27.9733 81.0205 27.9733ZM80.3594 38.0744C78.4085 38.0744 77.1838 36.5354 77.1838 34.0752C77.1838 31.6041 78.4085 30.0651 80.3702 30.0651C82.3427 30.0651 83.5241 31.5716 83.5241 34.0643C83.5241 36.5679 82.3427 38.0744 80.3594 38.0744Z" fill="white"/>
<path d="M57.6637 39.9711H60.3372L54.4846 23.7613H51.7774L45.9248 39.9711H48.5085L50.0025 35.6687H56.1809L57.6637 39.9711ZM53.0018 26.7045H53.1928L55.5406 33.5568H50.6428L53.0018 26.7045Z" fill="white"/>
<path d="M47.4902 11.5351V19.3548H50.3136C52.6437 19.3548 53.9931 17.9188 53.9931 15.4206C53.9931 12.9604 52.6329 11.5351 50.3136 11.5351H47.4902ZM48.7041 12.6406H50.1781C51.7984 12.6406 52.7575 13.6702 52.7575 15.4369C52.7575 17.2306 51.8146 18.2493 50.1781 18.2493H48.7041V12.6406Z" fill="white"/>
<path d="M58.1257 19.4686C59.8489 19.4686 60.9056 18.3144 60.9056 16.4014C60.9056 14.4994 59.8435 13.3397 58.1257 13.3397C56.4024 13.3397 55.3403 14.4994 55.3403 16.4014C55.3403 18.3144 56.397 19.4686 58.1257 19.4686ZM58.1257 18.4336C57.1123 18.4336 56.5433 17.6912 56.5433 16.4014C56.5433 15.1226 57.1123 14.3747 58.1257 14.3747C59.1336 14.3747 59.708 15.1226 59.708 16.4014C59.708 17.6858 59.1336 18.4336 58.1257 18.4336Z" fill="white"/>
<path d="M69.9045 13.4535H68.7394L67.6881 17.9567H67.596L66.3821 13.4535H65.2658L64.0519 17.9567H63.9652L62.9085 13.4535H61.7271L63.3529 19.3548H64.5505L65.7643 15.0088H65.8565L67.0757 19.3548H68.2842L69.9045 13.4535Z" fill="white"/>
<path d="M71.2462 19.3548H72.4113V15.9029C72.4113 14.9817 72.9587 14.4072 73.8203 14.4072C74.6819 14.4072 75.0938 14.8787 75.0938 15.827V19.3548H76.2589V15.5344C76.2589 14.1309 75.5327 13.3397 74.2159 13.3397C73.3272 13.3397 72.7419 13.7353 72.4547 14.391H72.368V13.4535H71.2462V19.3548Z" fill="white"/>
<path d="M78.0938 19.3548H79.2588V11.1504H78.0938V19.3548Z" fill="white"/>
<path d="M83.6407 19.4686C85.3639 19.4686 86.4207 18.3144 86.4207 16.4014C86.4207 14.4994 85.3585 13.3397 83.6407 13.3397C81.9174 13.3397 80.8553 14.4994 80.8553 16.4014C80.8553 18.3144 81.912 19.4686 83.6407 19.4686ZM83.6407 18.4336C82.6273 18.4336 82.0583 17.6912 82.0583 16.4014C82.0583 15.1226 82.6273 14.3747 83.6407 14.3747C84.6486 14.3747 85.223 15.1226 85.223 16.4014C85.223 17.6858 84.6486 18.4336 83.6407 18.4336Z" fill="white"/>
<path d="M89.8921 18.4715C89.2581 18.4715 88.7975 18.1626 88.7975 17.6316C88.7975 17.1113 89.1659 16.835 89.9788 16.7808L91.4203 16.6887V17.1818C91.4203 17.9134 90.77 18.4715 89.8921 18.4715ZM89.594 19.4524C90.369 19.4524 91.0138 19.1164 91.3661 18.5257H91.4582V19.3548H92.5799V15.3231C92.5799 14.0767 91.7454 13.3397 90.266 13.3397C88.9275 13.3397 87.9738 13.99 87.8545 15.0033H88.9817C89.1118 14.5861 89.5615 14.3476 90.2118 14.3476C91.0084 14.3476 91.4203 14.6999 91.4203 15.3231V15.8324L89.8216 15.9246C88.4181 16.0113 87.6269 16.6236 87.6269 17.6858C87.6269 18.7641 88.456 19.4524 89.594 19.4524Z" fill="white"/>
<path d="M96.5337 19.4524C97.3465 19.4524 98.0348 19.0676 98.387 18.4227H98.4791V19.3548H99.5954V11.1504H98.4303V14.391H98.3436C98.0239 13.7407 97.3411 13.3559 96.5337 13.3559C95.0434 13.3559 94.0843 14.5373 94.0843 16.4014C94.0843 18.271 95.0326 19.4524 96.5337 19.4524ZM96.8642 14.4018C97.8397 14.4018 98.452 15.1767 98.452 16.4069C98.452 17.6424 97.8451 18.4065 96.8642 18.4065C95.878 18.4065 95.2873 17.6532 95.2873 16.4014C95.2873 15.1605 95.8834 14.4018 96.8642 14.4018Z" fill="white"/>
<path d="M107.151 19.4686C108.874 19.4686 109.931 18.3144 109.931 16.4014C109.931 14.4994 108.869 13.3397 107.151 13.3397C105.427 13.3397 104.365 14.4994 104.365 16.4014C104.365 18.3144 105.422 19.4686 107.151 19.4686ZM107.151 18.4336C106.137 18.4336 105.568 17.6912 105.568 16.4014C105.568 15.1226 106.137 14.3747 107.151 14.3747C108.159 14.3747 108.733 15.1226 108.733 16.4014C108.733 17.6858 108.159 18.4336 107.151 18.4336Z" fill="white"/>
<path d="M111.473 19.3548H112.638V15.9029C112.638 14.9817 113.185 14.4072 114.047 14.4072C114.909 14.4072 115.32 14.8787 115.32 15.827V19.3548H116.486V15.5344C116.486 14.1309 115.759 13.3397 114.443 13.3397C113.554 13.3397 112.969 13.7353 112.681 14.391H112.595V13.4535H111.473V19.3548Z" fill="white"/>
<path d="M121.851 11.9849V13.4806H120.914V14.4614H121.851V17.7941C121.851 18.9321 122.366 19.3873 123.661 19.3873C123.889 19.3873 124.106 19.3602 124.295 19.3277V18.3577C124.133 18.374 124.03 18.3848 123.851 18.3848C123.271 18.3848 123.017 18.1139 123.017 17.4961V14.4614H124.295V13.4806H123.017V11.9849H121.851Z" fill="white"/>
<path d="M125.859 19.3548H127.024V15.9083C127.024 15.0142 127.556 14.4127 128.509 14.4127C129.333 14.4127 129.772 14.8895 129.772 15.8324V19.3548H130.937V15.5452C130.937 14.1417 130.162 13.3451 128.905 13.3451C128.016 13.3451 127.393 13.7407 127.106 14.4018H127.014V11.1504H125.859V19.3548Z" fill="white"/>
<path d="M135.14 14.3314C136.002 14.3314 136.565 14.9329 136.592 15.8595H133.612C133.677 14.9383 134.278 14.3314 135.14 14.3314ZM136.587 17.7616C136.37 18.2222 135.888 18.4769 135.183 18.4769C134.251 18.4769 133.65 17.8212 133.612 16.7862V16.7212H137.779V16.3147C137.779 14.4614 136.787 13.3397 135.145 13.3397C133.482 13.3397 132.425 14.5373 132.425 16.4231C132.425 18.3089 133.46 19.4686 135.151 19.4686C136.5 19.4686 137.443 18.8183 137.709 17.7616H136.587Z" fill="white"/>
<path d="M33.2843 26.667C33.3126 24.4722 34.4913 22.3954 36.3612 21.2458C35.1815 19.5611 33.2057 18.4929 31.15 18.4286C28.9575 18.1984 26.8319 19.7405 25.7147 19.7405C24.5758 19.7405 22.8555 18.4514 21.0031 18.4895C18.5886 18.5675 16.3377 19.9403 15.163 22.0512C12.6378 26.4232 14.5214 32.8484 16.9403 36.3824C18.1505 38.1129 19.5649 40.0458 21.4156 39.9773C23.2267 39.9022 23.9031 38.8225 26.0891 38.8225C28.2549 38.8225 28.8895 39.9773 30.7778 39.9337C32.7211 39.9022 33.9455 38.1955 35.1133 36.4487C35.9829 35.2157 36.652 33.8529 37.0959 32.4109C34.8121 31.445 33.287 29.1467 33.2843 26.667Z" fill="white"/>
<path d="M29.7176 16.1045C30.7772 14.8325 31.2992 13.1975 31.1728 11.5469C29.554 11.7169 28.0587 12.4906 26.9848 13.7138C25.9347 14.9089 25.3882 16.5151 25.4915 18.1027C27.1109 18.1193 28.7029 17.3666 29.7176 16.1045Z" fill="white"/>
</svg>
