<svg width="264" height="34" viewBox="0 0 264 34" fill="none" xmlns="http://www.w3.org/2000/svg">
<path d="M207.456 9.56291C206.618 9.6571 205.78 9.75129 205.035 9.84548C193.953 11.3525 182.871 12.8282 171.789 14.3352C145.062 17.9458 118.335 21.5878 91.6085 25.167C81.6441 26.517 71.5866 27.7729 61.2497 28.7776C56.7797 29.2172 52.2166 29.5939 47.6535 29.8137C42.4384 30.0649 37.3165 29.6567 32.6603 28.809C28.9353 28.1183 27.5384 26.9566 28.8422 25.5752C29.8665 24.4449 31.729 23.503 34.709 22.875C37.689 22.2785 40.6691 21.682 43.7422 21.211C51.6578 20.018 59.6666 18.8877 67.6754 17.7574C80.1541 16.0306 92.726 14.3352 105.298 12.6084C114.145 11.3839 122.899 10.0339 131.187 8.43263C134.725 7.74191 138.078 6.957 141.431 6.20348C142.734 5.88951 143.945 5.48136 145.249 5.0732C144.411 4.88482 143.666 4.97902 143.107 5.04181C139.754 5.35577 136.309 5.63834 132.956 5.9837C122.433 7.14538 112.282 8.55822 102.225 10.0967C74.7529 14.2724 47.3741 18.5109 19.9953 22.7181C17.4809 23.0948 15.0596 23.503 12.4521 23.8483C10.7759 24.0681 9.00648 24.2251 7.33023 24.2879C4.35022 24.3821 1.6496 23.9111 0.718323 23.189C-0.39917 22.2785 0.625214 21.4936 2.4877 20.8343C3.97772 20.3005 5.84021 19.9552 7.70273 19.6726C22.789 17.3179 37.7822 14.9631 52.9616 12.6398C72.4247 9.6571 91.7948 6.58024 111.63 3.88013C120.291 2.68707 128.952 1.55679 137.985 0.803272C141.244 0.520706 144.597 0.269531 148.042 0.332325C149.719 0.36372 151.395 0.426514 152.885 0.614891C157.821 1.18003 160.707 2.71846 160.242 4.47667C160.056 5.35577 159.124 6.14068 157.727 6.8942C156.237 7.71051 154.375 8.40124 152.233 9.02917C148.694 10.128 144.69 11.0072 140.499 11.8235C129.79 13.927 118.522 15.6538 107.067 17.2237C91.0498 19.4214 75.0323 21.6192 59.0147 23.8169C57.3385 24.0367 55.5691 24.3193 53.8928 24.5705C53.5203 24.6333 53.1478 24.696 52.8685 24.8844C53.7066 24.8216 54.5447 24.7588 55.3828 24.6646C65.7197 23.66 75.8704 22.4041 85.9279 21.054C111.444 17.6318 136.867 14.1782 162.384 10.7246C175.142 8.99777 187.807 7.23956 200.565 5.57555C205.594 4.91622 210.809 4.41388 216.024 3.88013C218.445 3.62896 220.866 3.53477 223.381 3.62896C230.831 3.91153 234.276 6.45465 229.899 8.52682C229.061 8.90358 228.037 9.24894 227.013 9.56291C222.636 10.9444 217.886 12.1688 212.858 13.2991C204.476 15.1829 195.722 16.8783 186.689 18.3853C170.858 21.0227 154.934 23.6286 139.009 26.2345C136.029 26.7368 133.142 27.2392 130.162 27.7729C129.604 27.8671 129.138 27.9927 128.579 28.0869C128.672 28.1183 128.672 28.1811 128.765 28.2125C129.604 28.1497 130.442 28.0555 131.28 27.9927C143.852 26.7368 155.958 25.0728 168.064 23.3774C191.997 20.018 215.093 16.219 238.001 12.263C242.099 11.5409 246.383 10.8816 250.573 10.2222C251.877 10.0025 253.274 9.84548 254.671 9.71989C256.254 9.56291 257.93 9.56291 259.606 9.78269C262.028 10.0967 263.611 10.7246 263.89 11.6037C264.076 12.4828 262.959 13.1735 260.724 13.6445C260.351 13.7386 259.979 13.8014 259.513 13.8642C252.808 14.6805 246.569 15.8422 240.329 16.9097C215.838 21.1482 190.973 25.1356 165.55 28.652C153.63 30.316 141.524 31.8231 129.045 32.9219C124.202 33.3615 119.36 33.7069 114.331 33.801C112.189 33.8324 109.954 33.8324 107.812 33.7383C106.415 33.6755 104.925 33.5185 103.622 33.2987C99.3379 32.5138 97.941 30.8184 100.642 29.4369C101.573 28.9346 102.877 28.4636 104.274 28.1183C107.533 27.302 110.792 26.4543 114.331 25.7635C122.805 24.1623 131.28 22.5611 139.941 21.1168C155.306 18.5109 170.765 16.062 186.224 13.4875C192.742 12.3886 199.075 11.1955 205.501 10.0653C206.153 9.93967 206.804 9.81408 207.456 9.6571C207.456 9.6257 207.456 9.59431 207.456 9.56291Z" fill="#BDFF0D"/>
</svg>
