<svg width="166" height="125" viewBox="0 0 166 125" fill="none" xmlns="http://www.w3.org/2000/svg">
<path d="M163.212 2.17507C162.497 31.1971 164.21 88.8194 114.938 75.6276C101.721 72.0891 89.8763 67.336 86.5245 53.6329C83.814 42.5517 98.7586 41.3125 105.571 48.9112C114.343 58.6967 118.149 69.6112 117.786 83.7587C117.474 95.9418 116.374 104.62 107.316 113.019C91.657 127.54 69.6432 122.064 49.5315 112.016C34.18 104.345 24.2416 99.1403 14.1698 89.5328C12.5348 87.9733 2.59754 77.7141 2.78714 78.2029C6.13857 86.8443 13.1652 98.6112 18.0524 106.731C19.5659 109.343 20.53 111.33 21.7843 113.439C22.6992 114.976 20.1764 110.415 19.5659 109.343C14.3297 100.152 7.90968 89.4022 3.45993 79.8647C0.671346 73.8877 14.4252 76.3074 19.6703 77.8417C28.0943 80.3059 35.4057 82.4446 41.4668 83.3275" stroke="url(#paint0_linear_174_454)" stroke-width="4.32222" stroke-linecap="round"/>
<defs>
<linearGradient id="paint0_linear_174_454" x1="103.962" y1="-15.1565" x2="62.7647" y2="125.682" gradientUnits="userSpaceOnUse">
<stop stop-color="#BDFF0D"/>
<stop offset="1" stop-color="white" stop-opacity="0.27"/>
</linearGradient>
</defs>
</svg>
