<svg width="72" height="73" viewBox="0 0 72 73" fill="none" xmlns="http://www.w3.org/2000/svg">
<g clip-path="url(#clip0_1_236)" filter="url(#filter0_d_1_236)">
<path d="M11.1572 39.3901C8.69568 40.8716 10.1772 43.3331 10.1772 43.3331L25.7329 69.1794C25.7329 69.1794 27.2144 71.641 29.6759 70.1595L69.0607 46.4556C71.5223 44.9741 70.0408 42.5125 70.0408 42.5125L54.4851 16.6662C54.4851 16.6662 53.0036 14.2047 50.5421 15.6862L11.1572 39.3901Z" fill="#5C913B"/>
<path d="M7.46076 33.2373C4.99921 34.7188 6.4807 37.1803 6.4807 37.1803L21.2956 61.7958C21.2956 61.7958 22.7771 64.2574 25.2387 62.7759L64.6235 39.072C67.0851 37.5905 65.6036 35.1289 65.6036 35.1289L50.7886 10.5134C50.7886 10.5134 49.3071 8.05184 46.8456 9.53334L7.46076 33.2373Z" fill="#A7D28B"/>
<path d="M49.4688 38.9696C53.8871 36.3105 55.3132 30.5731 52.654 26.1548C49.9948 21.7365 44.2574 20.3104 39.8391 22.9696C35.4208 25.6287 33.9947 31.3662 36.6539 35.7845C39.3131 40.2028 45.0505 41.6288 49.4688 38.9696Z" fill="#77B255"/>
<path d="M62.2768 37.9656L25.3535 60.188C24.3357 60.8006 23.0088 60.4709 22.3962 59.453L9.06278 37.299C8.45018 36.2812 8.77997 34.9544 9.79782 34.3418L46.7211 12.1193C47.7389 11.5067 49.0658 11.8365 49.6784 12.8544L63.0118 35.0083C63.6244 36.0262 63.2946 37.353 62.2768 37.9656ZM10.5386 35.5725C10.3754 35.6708 10.2579 35.8298 10.2119 36.0147C10.166 36.1995 10.1953 36.3951 10.2936 36.5583L23.627 58.7123C23.8307 59.0507 24.2743 59.161 24.6128 58.9573L61.536 36.7349C61.8745 36.5311 61.9848 36.0876 61.7811 35.7491L48.4476 13.5951C48.3494 13.4319 48.1903 13.3144 48.0055 13.2685C47.8206 13.2225 47.6251 13.2519 47.4618 13.3501L10.5386 35.5725Z" fill="#5C913B"/>
<path d="M22.2258 24.3477L32.072 18.4217L49.8959 48.0366L40.0497 53.9626L22.2258 24.3477Z" fill="#FFE8B6"/>
<path d="M39.9996 53.886L49.8458 47.96L54.2903 55.3447L44.4441 61.2706L39.9996 53.886Z" fill="#FFAC33"/>
<path d="M23.682 50.9477L21.2315 46.8759L19.9957 47.6196L19.3855 46.6056L20.6213 45.8619L19.8394 44.5627L18.6036 45.3064L17.9934 44.2924L19.2292 43.5487L16.8741 39.6353L18.5218 38.6437L22.3821 41.6513L24.2516 40.5261L21.8965 36.6127L23.1482 35.8595L25.5033 39.7729L26.7391 39.0292L27.3493 40.0432L26.1135 40.7869L26.8954 42.0861L28.1312 41.3423L28.7414 42.3563L27.5056 43.1001L29.9561 47.1719L28.2925 48.1731L24.3369 45.007L22.4673 46.1322L24.9178 50.204L23.682 50.9477ZM21.8571 45.1182L23.3464 44.2219L22.0892 43.2087L21.0435 43.838L21.8571 45.1182ZM27.36 45.6912L27.4234 45.653L26.2698 43.8438L25.6044 44.2442L27.36 45.6912ZM20.4333 42.8241L21.0987 42.4236L19.251 40.8594L19.1876 40.8976L20.4333 42.8241ZM24.6139 43.4591L25.6754 42.8202L24.8619 41.5401L23.3567 42.446L24.6139 43.4591Z" fill="#5C913B"/>
</g>
<defs>
<filter id="filter0_d_1_236" x="0.554749" y="0.666748" width="71.5289" height="72.6371" filterUnits="userSpaceOnUse" color-interpolation-filters="sRGB">
<feFlood flood-opacity="0" result="BackgroundImageFix"/>
<feColorMatrix in="SourceAlpha" type="matrix" values="0 0 0 0 0 0 0 0 0 0 0 0 0 0 0 0 0 0 127 0" result="hardAlpha"/>
<feMorphology radius="2.2163" operator="erode" in="SourceAlpha" result="effect1_dropShadow_1_236"/>
<feOffset dx="0.554075" dy="1.66223"/>
<feGaussianBlur stdDeviation="1.10815"/>
<feComposite in2="hardAlpha" operator="out"/>
<feColorMatrix type="matrix" values="0 0 0 0 0 0 0 0 0 0 0 0 0 0 0 0 0 0 0.05 0"/>
<feBlend mode="normal" in2="BackgroundImageFix" result="effect1_dropShadow_1_236"/>
<feBlend mode="normal" in="SourceGraphic" in2="effect1_dropShadow_1_236" result="shape"/>
</filter>
<clipPath id="clip0_1_236">
<rect width="51.7138" height="51.7138" fill="white" transform="translate(0.554749 27.3337) rotate(-31.0418)"/>
</clipPath>
</defs>
</svg>
