<svg width="65" height="20" viewBox="0 0 65 20" fill="none" xmlns="http://www.w3.org/2000/svg">
<path d="M10.3516 11.0537H2.75308V19.2227H0.885885V0.654388H11.8298V2.36599H2.75308V9.36799H10.3516V11.0537ZM15.4596 3.22179C14.7335 3.22179 14.137 2.62532 14.137 1.89919C14.137 1.17305 14.7335 0.550655 15.4596 0.550655C16.1857 0.550655 16.8081 1.17305 16.8081 1.89919C16.8081 2.62532 16.1857 3.22179 15.4596 3.22179ZM14.5779 19.2227V6.67092H16.3673V19.2227H14.5779ZM21.8882 19.2227H20.0988V6.67092H21.6548L21.9142 8.84932C22.744 7.24146 24.4038 6.33379 26.2191 6.33379C29.6682 6.33379 31.0946 8.38252 31.0946 11.5464V19.2227H29.3052V11.9354C29.3052 9.00492 27.9826 7.96759 25.9079 7.96759C23.3405 7.96759 21.8882 9.83479 21.8882 12.6615V19.2227ZM38.2657 19.5339C35.5946 19.5339 34.0127 18.0297 34.0127 15.8254C34.0127 13.5173 35.7761 12.0651 38.7066 11.8317L42.8559 11.4945V11.0796C42.8559 8.61592 41.3777 7.83792 39.5365 7.83792C37.3581 7.83792 36.0614 8.82339 36.0614 10.5091H34.4276C34.4276 7.96759 36.5023 6.33379 39.5883 6.33379C42.4929 6.33379 44.6194 7.78606 44.6194 11.1055V19.2227H43.1153L42.8819 17.0183C42.1039 18.6003 40.3923 19.5339 38.2657 19.5339ZM38.6807 18.0816C41.3259 18.0816 42.8559 16.2403 42.8559 13.5173V12.8431L39.1475 13.1283C36.7875 13.3358 35.828 14.3731 35.828 15.7735C35.828 17.3036 36.9691 18.0816 38.6807 18.0816ZM47.3284 12.9727C47.3284 9.03086 49.7402 6.33379 53.3968 6.33379C56.3014 6.33379 58.4279 8.01946 58.9206 10.6128H57.1312C56.6644 8.87526 55.1603 7.91572 53.4228 7.91572C50.8813 7.91572 49.0919 9.86072 49.0919 12.9468C49.0919 15.9291 50.7516 17.926 53.2931 17.926C55.1603 17.926 56.6644 16.8887 57.1572 15.2808H58.9725C58.376 17.8482 56.1458 19.5339 53.2931 19.5339C49.7402 19.5339 47.3284 16.9146 47.3284 12.9727ZM62.7069 19.5079C61.8252 19.5079 61.0731 18.7818 61.0731 17.926C61.0731 17.0443 61.8252 16.2922 62.7069 16.2922C63.5886 16.2922 64.3407 17.0443 64.3407 17.926C64.3407 18.7818 63.5886 19.5079 62.7069 19.5079Z" fill="#BDFF0D"/>
</svg>
