<svg width="120" height="104" viewBox="0 0 120 104" fill="none" xmlns="http://www.w3.org/2000/svg">
<path d="M44.8054 28.9658C45.0997 28.2875 45.2675 27.7793 45.499 27.2917C47.3689 22.4823 49.2177 17.7363 51.0876 12.9269C51.6757 11.359 52.9659 11.0803 54.2388 12.1347C54.6207 12.4725 54.939 12.7892 55.2364 13.1692C61.097 19.9672 65.8374 27.3823 69.4373 35.4778C72.3983 42.3051 75.9307 48.8981 79.5681 55.385C81.6101 59.0194 83.5678 62.6963 85.5043 66.4367C87.3128 69.9236 89.4393 73.3038 91.6918 76.5142C93.9655 79.8728 95.9653 83.4226 97.9645 86.9724C98.4965 87.9233 98.7539 89.0654 98.884 90.1655C98.929 91.0966 98.7629 92.2399 98.342 93.0877C96.8682 95.8432 94.3304 96.4853 91.7646 94.6514C90.1101 93.4709 88.7724 91.9721 87.2657 90.5584C86.7351 90.0308 86.2256 89.4397 85.6739 88.9757C76.8274 81.4031 67.8958 73.873 59.0491 66.3004C53.8091 61.8922 48.6962 57.5258 43.6888 53.0534C34.9043 45.0785 28.8662 35.4028 25.342 24.0904C24.8077 22.2929 24.3371 20.5166 23.8239 18.6552C22.9809 19.9275 22.9192 20.5412 23.8305 20.9832C23.5997 21.6827 23.3689 22.3815 23.138 23.0804C22.9282 23.7158 22.7394 24.288 22.0205 24.5441C21.7034 24.651 21.4084 25.1169 21.367 25.4561C21.0535 26.8326 20.7825 28.2936 20.469 29.6702C20.3857 30.136 20.3023 30.6019 20.1554 31.0467C19.9876 31.5548 20.1171 32.4437 19.2916 32.3824C18.3179 32.3429 18.3365 31.4329 18.4192 30.7552C18.5619 28.8291 18.7046 26.9029 18.9743 25.0182C19.7212 19.7675 20.3195 14.3268 21.8494 9.05292C22.2685 7.57013 22.8146 6.12956 23.3607 4.68835C24.0754 2.95082 25.1959 2.54553 26.9754 3.13326C28.1193 3.51122 28.9676 4.14328 29.6475 5.07296C30.8586 6.74098 32.0907 8.3463 33.1536 10.0361C36.6832 15.7825 40.1282 21.5719 43.6578 27.3183C43.9768 27.8468 44.3167 28.3113 44.8054 28.9658Z" fill="#BDFF0D"/>
<path d="M48.4071 47.0122C49.7296 42.1081 51.0521 37.2037 52.3525 32.3666C52.8156 30.7392 53.3456 29.1342 53.8088 27.5069C54.14 26.5034 54.6498 25.6334 55.7629 25.4077C56.9428 25.2036 57.8798 25.7354 58.5286 26.6917C59.1545 27.492 59.6694 28.4037 60.1174 29.293C71.179 49.7093 82.5297 69.9242 94.9698 89.5345C95.6863 90.7352 96.4022 91.9361 97.0965 93.2037C97.6335 94.0486 97.9256 94.961 97.1711 95.8986C96.4383 96.7694 95.4806 96.7499 94.5443 96.4407C92.225 95.6009 89.928 94.6942 87.6533 93.7206C83.2601 91.7507 78.8213 89.6919 74.428 87.722C69.5214 85.5086 64.6374 83.451 59.7529 81.1707C54.6677 78.8241 49.7156 76.2989 44.7415 73.8407C42.5109 72.7333 40.2583 71.6929 37.8939 70.5414C37.651 71.2771 37.4302 71.946 37.2314 72.5479C36.6358 74.5765 36.085 76.6942 35.4225 78.7007C34.6054 81.1755 33.0696 81.5585 31.1046 79.8713C29.8988 78.8055 28.7151 77.6729 27.5534 76.4734C26.0787 74.8739 24.6482 73.1406 23.2625 71.4962C19.0834 66.6301 14.9264 61.6971 10.7251 56.8978C9.29469 55.1645 8.86684 53.5398 9.46248 51.5111C10.3887 48.2565 11.248 44.9797 12.1743 41.725C14.247 34.3241 16.3417 26.8561 18.4813 19.4777C19.0549 17.5156 19.6953 15.5759 20.3137 13.7034C20.5345 13.0346 20.7332 12.4324 21.0878 11.8076C22.1731 9.64412 23.8648 9.23858 25.6959 10.8813C26.5667 11.6141 27.2375 12.5032 27.9751 13.414C32.514 19.4372 36.3858 25.9083 40.1687 32.4236C42.6088 36.716 44.8489 41.1642 47.1779 45.5679C47.4467 46.1017 47.7156 46.6355 48.0733 47.1245C48.1623 47.0797 48.2513 47.0349 48.4071 47.0122Z" fill="#FBE8DE"/>
<path d="M37.9361 70.4075C37.671 71.2101 37.4723 71.8121 37.2515 72.4809C36.589 74.4874 36.0381 76.6051 35.3756 78.6117C34.6027 80.9526 33.0448 81.4026 31.1246 79.8043C29.9636 78.8275 28.8467 77.717 27.752 76.5396C26.2325 74.8511 24.802 73.1178 23.3495 71.4513C19.1255 66.4963 14.9685 61.5632 10.7004 56.7419C9.29263 55.1645 8.88684 53.4728 9.48248 51.4441C10.3867 48.2564 11.2239 45.0465 12.1281 41.8587C14.2228 34.3906 16.3845 26.945 18.5013 19.4105C19.0528 17.5156 19.6711 15.6431 20.2895 13.7699C20.4662 13.2349 20.6428 12.6999 20.8864 12.1872C22.0815 9.46573 24.0849 9.01507 26.0958 11.2365C27.7939 13.0579 29.3366 15.1251 30.7236 17.2148C36.1377 25.5304 41.3737 33.9352 45.787 42.8097C46.5039 44.2332 47.2428 45.5898 48.0492 47.1912C48.7376 46.4543 48.713 45.6302 48.9338 44.9613C50.4551 39.4553 51.9983 33.8825 53.5196 28.3766C53.6741 27.9081 53.7619 27.418 54.0054 26.9046C54.8023 25.165 56.583 24.7146 57.9901 26.0692C58.7051 26.8246 59.2868 27.7586 59.8017 28.6703C63.7424 35.8315 67.6829 42.9924 71.6239 50.1534C78.6538 62.7851 86.0398 75.2376 93.7813 87.5108C94.8554 89.2006 95.9071 90.9573 96.8923 92.6919C97.1384 93.0698 97.3622 93.5147 97.4528 93.9153C97.8798 95.3174 97.1262 96.4778 95.6554 96.4374C94.7866 96.3731 93.8952 96.1529 93.0478 95.7989C87.651 93.4978 82.276 91.1298 76.9681 88.7838C71.0803 86.1722 65.2373 83.6496 59.3937 80.9043C54.4422 78.6019 49.5571 76.0988 44.7167 73.6847C42.4862 72.5773 40.2335 71.5369 37.9361 70.4075ZM92.0561 91.6142C92.1666 91.5025 92.2778 91.3908 92.3218 91.257C79.7488 71.8253 68.5758 51.5208 56.869 31.2625C56.4052 32.6672 55.9849 33.7149 55.6985 34.8073C54.3325 40.0679 53.0554 45.2837 51.6894 50.5443C51.5797 51.1015 51.403 51.6365 51.1594 52.1496C50.2073 54.1347 48.337 54.4073 46.7955 52.7857C46.1475 52.0525 45.6326 51.1407 45.1177 50.2289C42.2516 44.9804 39.6525 39.5974 36.6085 34.4388C32.8931 28.1678 28.8667 22.1652 24.9513 16.0511C24.6604 15.5838 24.2136 15.1397 23.6546 14.3618C23.1025 16.034 22.616 17.2826 22.2633 18.5759C19.1319 29.6327 16.0004 40.6894 12.8022 51.7242C12.5599 52.6827 12.8286 53.2165 13.365 53.8387C17.5441 58.7048 21.7233 63.571 25.9024 68.4371C27.5114 70.3035 29.1205 72.17 30.7296 74.0364C31.1094 74.4585 31.5562 74.9028 32.1815 75.4801C32.4465 74.6775 32.6453 74.0755 32.8219 73.5404C33.3955 71.5787 33.9021 69.5948 34.5873 67.7441C35.2284 66.0272 36.4077 65.6006 38.0805 66.3754C40.6455 67.5932 43.2553 68.9 45.7982 70.1846C51.2184 72.8643 56.5497 75.5889 62.0141 78.1348C70.445 82.031 78.8526 85.7715 87.172 89.5566C88.7996 90.2425 90.4278 90.9283 92.0561 91.6142Z" fill="#0F172A"/>
</svg>
