<svg width="19" height="22" viewBox="0 0 19 22" fill="none" xmlns="http://www.w3.org/2000/svg">
<path d="M9.47085 2.30677C11.98 2.30677 12.2771 2.3172 13.2683 2.36737C13.8643 2.37546 14.4546 2.49693 15.0136 2.72648C15.4189 2.9 15.7871 3.16581 16.0943 3.5068C16.4015 3.84779 16.641 4.2564 16.7973 4.70634C17.0041 5.32677 17.1136 5.98198 17.1208 6.64348C17.1656 7.74367 17.1754 8.07348 17.1754 10.8585C17.1754 13.6435 17.166 13.9733 17.1208 15.0735C17.1136 15.735 17.0041 16.3902 16.7973 17.0106C16.641 17.4606 16.4015 17.8692 16.0943 18.2102C15.7871 18.5512 15.4189 18.817 15.0136 18.9905C14.4546 19.2201 13.8643 19.3415 13.2683 19.3496C12.2776 19.3993 11.9804 19.4102 9.47085 19.4102C6.96127 19.4102 6.66413 19.3998 5.67337 19.3496C5.0774 19.3415 4.4871 19.2201 3.92812 18.9905C3.52276 18.817 3.15462 18.5512 2.84741 18.2102C2.5402 17.8692 2.30072 17.4606 2.14439 17.0106C1.93757 16.3902 1.82814 15.735 1.82085 15.0735C1.7761 13.9733 1.76625 13.6435 1.76625 10.8585C1.76625 8.07348 1.77565 7.74367 1.82085 6.64348C1.82814 5.98198 1.93757 5.32677 2.14439 4.70634C2.30072 4.2564 2.5402 3.84779 2.84741 3.5068C3.15462 3.16581 3.52276 2.9 3.92812 2.72648C4.4871 2.49693 5.0774 2.37546 5.67337 2.36737C6.66458 2.3177 6.96172 2.30677 9.47085 2.30677V2.30677ZM9.47085 0.427246C6.9201 0.427246 6.5988 0.439167 5.5964 0.489831C4.81643 0.50705 4.04474 0.670968 3.31415 0.974612C2.68743 1.2367 2.11978 1.64743 1.6508 2.17812C1.17224 2.69885 0.80189 3.32928 0.565613 4.02536C0.292048 4.83627 0.144368 5.69281 0.128854 6.55854C0.0841043 7.67016 0.0733643 8.02679 0.0733643 10.858C0.0733643 13.6892 0.0841042 14.0458 0.129749 15.1584C0.145263 16.0242 0.292943 16.8807 0.566509 17.6916C0.802523 18.3876 1.17257 19.018 1.6508 19.5389C2.12003 20.0697 2.688 20.4804 3.31505 20.7424C4.04564 21.046 4.81733 21.2099 5.5973 21.2272C6.59969 21.2768 6.91966 21.2897 9.47174 21.2897C12.0238 21.2897 12.3438 21.2778 13.3462 21.2272C14.1262 21.2099 14.8979 21.046 15.6284 20.7424C16.2525 20.4739 16.8192 20.0638 17.2924 19.5383C17.7655 19.0128 18.1346 18.3835 18.3761 17.6906C18.6497 16.8797 18.7973 16.0232 18.8128 15.1574C18.8576 14.0458 18.8683 13.6892 18.8683 10.858C18.8683 8.02679 18.8576 7.67016 18.8119 6.55755C18.7964 5.69182 18.6488 4.83528 18.3752 4.02436C18.1392 3.32837 17.7691 2.69796 17.2909 2.17713C16.8217 1.64631 16.2537 1.23558 15.6266 0.973619C14.8961 0.669975 14.1244 0.506057 13.3444 0.488837C12.3429 0.439167 12.0216 0.427246 9.47085 0.427246Z" fill="#191D23"/>
<path d="M9.46971 5.50244C8.51525 5.50244 7.58223 5.81659 6.78862 6.40516C5.99502 6.99374 5.37648 7.8303 5.01123 8.80906C4.64597 9.78782 4.5504 10.8648 4.73661 11.9039C4.92281 12.9429 5.38243 13.8973 6.05734 14.6465C6.73224 15.3956 7.59212 15.9057 8.52824 16.1124C9.46436 16.3191 10.4347 16.213 11.3165 15.8076C12.1983 15.4022 12.952 14.7156 13.4822 13.8348C14.0125 12.9539 14.2955 11.9183 14.2955 10.8589C14.2955 9.43826 13.7871 8.07583 12.8821 7.07131C11.9771 6.06678 10.7496 5.50244 9.46971 5.50244ZM9.46971 14.3358C8.85016 14.3358 8.24453 14.1319 7.72939 13.7498C7.21426 13.3678 6.81276 12.8248 6.57567 12.1894C6.33857 11.5541 6.27654 10.855 6.39741 10.1806C6.51828 9.50611 6.81662 8.88658 7.25471 8.40033C7.69279 7.91407 8.25095 7.58293 8.85859 7.44877C9.46624 7.31461 10.0961 7.38347 10.6685 7.64663C11.2409 7.90979 11.7301 8.35543 12.0743 8.92721C12.4185 9.49898 12.6022 10.1712 12.6022 10.8589C12.6022 11.781 12.2722 12.6654 11.6847 13.3174C11.0973 13.9695 10.3005 14.3358 9.46971 14.3358V14.3358Z" fill="#191D23"/>
<path d="M14.4872 6.54147C15.11 6.54147 15.6149 5.98107 15.6149 5.28978C15.6149 4.59849 15.11 4.03809 14.4872 4.03809C13.8644 4.03809 13.3595 4.59849 13.3595 5.28978C13.3595 5.98107 13.8644 6.54147 14.4872 6.54147Z" fill="#191D23"/>
</svg>
