<svg width="27" height="32" viewBox="0 0 27 32" fill="none" xmlns="http://www.w3.org/2000/svg">
<path fill-rule="evenodd" clip-rule="evenodd" d="M17.1187 3.53841C18.0906 3.53841 18.7385 2.8905 18.7385 1.91862C18.7385 0.946745 18.0906 0.298828 17.1187 0.298828H10.6395C9.66765 0.298828 9.01973 0.946745 9.01973 1.91862C9.01973 2.8905 9.66765 3.53841 10.6395 3.53841H17.1187ZM25.5416 8.72175C26.1895 8.07383 26.1895 7.10196 25.5416 6.45404C24.8937 5.80612 23.9218 5.80612 23.2739 6.45404L21.8161 7.91186C17.1187 4.18633 10.6395 4.18633 5.94212 7.91186L4.48431 6.45404C3.83639 5.80612 2.86452 5.80612 2.2166 6.45404C1.56868 7.10196 1.56868 8.07383 2.2166 8.72175L3.67441 10.1796C-0.699027 15.8488 0.272849 23.9478 5.94212 28.3212C11.6114 32.6947 19.7104 31.7228 24.0838 26.0535C27.8093 21.3561 27.8093 14.877 24.0838 10.1796L25.5416 8.72175ZM13.8791 21.3561C12.0973 21.3561 10.6395 19.8983 10.6395 18.1166C10.6395 16.9827 11.2874 15.8488 12.2593 15.3629V11.6374C12.2593 10.6655 12.9072 10.0176 13.8791 10.0176C14.851 10.0176 15.4989 10.6655 15.4989 11.6374V15.3629C17.1187 16.1728 17.6046 18.1166 16.6328 19.7363C15.9848 20.7082 15.013 21.3561 13.8791 21.3561Z" fill="#4C640C"/>
</svg>
