<svg width="19" height="20" viewBox="0 0 19 20" fill="none" xmlns="http://www.w3.org/2000/svg">
<path fill-rule="evenodd" clip-rule="evenodd" d="M9.13212 0.427246C4.15059 0.427246 0.142899 4.87559 0.142899 10.4048C0.142899 14.8116 2.7273 18.5532 6.28553 19.8836C6.73499 19.9667 6.88481 19.6757 6.88481 19.3847C6.88481 19.1352 6.88481 18.5116 6.88481 17.6802C4.37532 18.3038 3.85095 16.3498 3.85095 16.3498C3.43895 15.1858 2.83966 14.8948 2.83966 14.8948C2.01565 14.2712 2.91457 14.2712 2.91457 14.2712C3.8135 14.3543 4.30041 15.3105 4.30041 15.3105C5.08697 16.8487 6.3979 16.3914 6.92227 16.142C6.99718 15.4768 7.22191 15.0611 7.48409 14.8116C5.49897 14.5622 3.40149 13.6891 3.40149 9.86439C3.40149 8.78348 3.73859 7.86887 4.33787 7.2037C4.26296 6.95426 3.92586 5.9565 4.41278 4.543C4.41278 4.543 5.16188 4.29356 6.88481 5.58234C7.59646 5.37447 8.38302 5.24975 9.13212 5.24975C9.88122 5.24975 10.6678 5.37447 11.3794 5.58234C13.1024 4.29356 13.8515 4.543 13.8515 4.543C14.3384 5.91492 14.0387 6.91268 13.9264 7.2037C14.4882 7.91044 14.8627 8.78348 14.8627 9.86439C14.8627 13.6891 12.7653 14.5206 10.7427 14.77C11.0798 15.0611 11.342 15.6847 11.342 16.5993C11.342 17.9296 11.342 19.0105 11.342 19.3431C11.342 19.5925 11.4918 19.9251 11.9787 19.842C15.5369 18.5532 18.1213 14.8116 18.1213 10.4048C18.1213 4.87559 14.1136 0.427246 9.13212 0.427246Z" fill="#191D23"/>
</svg>
